<?xml version="1.0" encoding="UTF-8"?>
<svg id="Capa_2" data-name="Capa 2" xmlns="http://www.w3.org/2000/svg" xmlns:xlink="http://www.w3.org/1999/xlink" viewBox="0 0 289 70.87">
  <defs>
    <style>
      .cls-1 {
        fill: url(#Degradado_sin_nombre_14);
      }

      .cls-1, .cls-2, .cls-3, .cls-4 {
        stroke-width: 0px;
      }

      .cls-2 {
        fill: #d91c5c;
      }

      .cls-3 {
        fill: #652d90;
      }

      .cls-5 {
        filter: url(#drop-shadow-1);
      }

      .cls-4 {
        fill: #9f248e;
      }
    </style>
    <filter id="drop-shadow-1" filterUnits="userSpaceOnUse">
      <feOffset dx="6" dy="6"/>
      <feGaussianBlur result="blur" stdDeviation="5"/>
      <feFlood flood-color="#000" flood-opacity=".45"/>
      <feComposite in2="blur" operator="in"/>
      <feComposite in="SourceGraphic"/>
    </filter>
    <linearGradient id="Degradado_sin_nombre_14" data-name="Degradado sin nombre 14" x1="0" y1="35.44" x2="289" y2="35.44" gradientUnits="userSpaceOnUse">
      <stop offset="0" stop-color="#652d90"/>
      <stop offset="1" stop-color="#d91c5c"/>
    </linearGradient>
  </defs>
  <g id="Layer_1" data-name="Layer 1">
    <g class="cls-5">
      <g>
        <path class="cls-2" d="m22.48,19.62V6.64h26.29v57.96H6.78v-12.98l16.21-10.25.08.08v10.09h9.43v-31.91h-10Z"/>
        <path class="cls-2" d="m53.08,6.64h16.29v44.9h9.92V6.64h16.29v57.96h-42.5V6.64Z"/>
        <path class="cls-4" d="m99.87,6.64h42.5v33.73l-22.16,24.23h-20.34V6.64Zm16.37,12.98v28.52l9.84-11.99v-16.54h-9.84Z"/>
        <path class="cls-4" d="m146.67,6.64h42.5v57.96h-42.5V6.64Zm16.29,44.9h9.92v-31.91h-9.92v31.91Z"/>
        <path class="cls-3" d="m220.53,36.15V6.64h16.78v33.73l-22.82,24.23h-20.95V6.64h16.86v41.51l10.13-11.99Z"/>
        <path class="cls-3" d="m241.18,19.62V6.64h41.5v12.98h-12.24v32h12.24v12.98h-41.5v-12.98h12.15v-32h-12.15Z"/>
      </g>
      <path class="cls-1" d="m286.05,2.95v64.98H2.95V2.95h283.11m2.95-2.95H0v70.87h289V0h0Z"/>
    </g>
  </g>
</svg>