<?xml version="1.0" encoding="UTF-8"?>
<svg id="Capa_2" data-name="Capa 2" xmlns="http://www.w3.org/2000/svg" viewBox="0 0 17.11 13.1">
  <defs>
    <style>
      .cls-1 {
        fill: #d70954;
        stroke-width: 0px;
      }
    </style>
  </defs>
  <g id="Capa_1-2" data-name="Capa 1">
    <path class="cls-1" d="m15.07,0H2.03C.91,0,0,.88,0,1.97v9.17c0,1.08.91,1.97,2.03,1.97h13.04c1.12,0,2.03-.88,2.03-1.97V1.97c0-1.08-.91-1.97-2.03-1.97m0,11.37H2.03c-.17,0-.31-.11-.31-.23V3.18l5.9,5.02c.12.1.28.16.43.16h1c.16,0,.31-.06.43-.16l5.9-5.02v7.96c0,.12-.14.23-.31.23m-6.52-4.73L2.81,1.74h11.48l-5.74,4.9Z"/>
  </g>
</svg>